<svg xmlns="http://www.w3.org/2000/svg" viewBox="0 0 100 100"><path fill="ACCENT" d="M23.8 43.3c0 2.6.5 5 1.5 7 1 2.1 2.4 3.9 4 5.3 1.7 1.5 3.6 2.6 5.7 3.4 2.1.8 4.3 1.2 6.5 1.2 1.1 0 2 0 2.9-.1s1.6-.2 2.3-.4c-.1-1.8-.3-3.6-.6-5.5s-.7-3.8-1.3-5.7-1.2-3.6-2-5.3c-.8-1.7-1.7-3.2-2.8-4.4-1.1-1.3-2.3-2.3-3.6-3s-2.8-1.1-4.5-1.1c-1.3 0-2.5.2-3.5.7-1 .5-1.9 1.1-2.6 1.9-.7.8-1.2 1.7-1.6 2.8-.3.9-.4 2-.4 3.2zm26.1 21.5c-1.7 0-3.5 0-5.6.1l-6 .3c-2 .1-3.9.3-5.8.5-1.8.2-3.4.4-4.8.7 1.4.1 3.1.3 5 .4 1.9.1 3.9.2 6 .3 2 .1 4 .1 6 .1H55c1.9 0 3.8-.1 5.8-.1 2-.1 4-.1 5.9-.2 1.9-.1 3.7-.2 5.2-.3-1.3-.2-2.8-.4-4.6-.6-1.8-.2-3.7-.4-5.7-.5s-4-.3-6.1-.4c-2-.3-3.9-.3-5.6-.3zm0 6.6c-1.7 0-3.5 0-5.6.1l-6 .3c-2 .1-3.9.3-5.8.5-1.8.2-3.4.4-4.8.7 1.4.1 3.1.3 5 .4 1.9.1 3.9.2 6 .3 2 .1 4 .1 6 .1H55c1.9 0 3.8-.1 5.8-.1 2-.1 4-.1 5.9-.2 1.9-.1 3.7-.2 5.2-.3-1.3-.2-2.8-.4-4.6-.6-1.8-.2-3.7-.4-5.7-.5s-4-.3-6.1-.4c-2-.2-3.9-.3-5.6-.3zm0 6.9c-1.7 0-3.5 0-5.6.1s-4 .2-6 .3-3.9.3-5.8.5c-1.8.2-3.4.4-4.8.7 1.4.1 3.1.3 5 .4 1.9.1 3.9.2 6 .3 2 .1 4 .1 6 .1H55c1.9 0 3.8-.1 5.8-.1 2-.1 4-.1 5.9-.2 1.9-.1 3.7-.2 5.2-.3-1.3-.2-2.8-.4-4.6-.6-1.8-.2-3.7-.4-5.7-.5s-4-.3-6.1-.4c-2-.2-3.9-.3-5.6-.3zM47 40.1c0 1.7.1 3.3.3 4.7.2 1.5.5 3 .8 4.5.3 1.5.6 3.2.9 5 .3 1.8.6 3.8.8 6.1h.2V27.5c-.7 1.1-1.2 2.2-1.6 3.4-.4 1.1-.7 2.2-.9 3.3-.2 1.1-.3 2.1-.4 3.1s-.1 2-.1 2.8zm29.3 3.2c0-1.2-.2-2.3-.5-3.3-.3-1.1-.9-2-1.6-2.8-.7-.8-1.6-1.4-2.6-1.9s-2.2-.7-3.5-.7c-1.6 0-3.1.4-4.5 1.1s-2.5 1.8-3.6 3c-1.1 1.3-2 2.7-2.8 4.4-.8 1.7-1.5 3.4-2 5.3s-1 3.7-1.3 5.7c-.3 1.9-.5 3.8-.6 5.5.7.2 1.4.3 2.3.4s1.8.1 2.9.1c2.2 0 4.4-.4 6.5-1.2 2.1-.8 4-1.9 5.7-3.4 1.7-1.5 3-3.3 4-5.3s1.6-4.3 1.6-6.9z"/><path fill="BODY" d="M48.7 15h2.6v2.5h2.4v2.4h-2.4v4.3c1.4 2.1 2.6 4.4 3.4 6.9s1.3 5.3 1.3 8.3c.6-1 1.3-1.9 2.1-2.8.8-.9 1.7-1.7 2.7-2.4s2.1-1.2 3.3-1.6c1.2-.4 2.5-.6 3.8-.6 1.7 0 3.2.3 4.6.9 1.4.6 2.6 1.4 3.6 2.4s1.8 2.2 2.4 3.6c.6 1.4.9 3 .9 4.6 0 1.9-.3 3.7-.8 5.4-.6 1.8-1.3 3.4-2.3 4.9s-2.1 2.8-3.5 4c-1.4 1.2-2.8 2.1-4.4 2.8.4 0 1 .1 1.5.1.6 0 1.2.1 1.8.1s1.2.1 1.8.1c.6 0 1.1.1 1.6.1v22.3c-4.1.6-8.3 1-12.5 1.3s-8.5.4-12.7.4-8.3-.1-12.3-.4-8.3-.7-12.7-1.3V60.9c.5 0 1-.1 1.6-.1.6 0 1.2-.1 1.8-.1s1.2-.1 1.8-.1 1.1-.1 1.6-.1c-1.6-.7-3.1-1.6-4.4-2.8-1.4-1.2-2.5-2.5-3.5-4s-1.7-3.1-2.3-4.9-.8-3.6-.8-5.4c0-1.7.3-3.2.9-4.6.6-1.4 1.4-2.6 2.4-3.6s2.2-1.8 3.6-2.4c1.4-.6 2.9-.9 4.6-.9 1.4 0 2.6.2 3.8.6 1.2.4 2.3.9 3.3 1.6s1.9 1.5 2.7 2.4c.8.9 1.5 1.8 2.1 2.8 0-3 .4-5.8 1.3-8.3s2-4.8 3.4-6.9v-4.3h-2.4v-2.4h2.4V15zM23.8 43.3c0 2.6.5 5 1.5 7 1 2.1 2.4 3.9 4 5.3 1.7 1.5 3.6 2.6 5.7 3.4 2.1.8 4.3 1.2 6.5 1.2 1.1 0 2 0 2.9-.1s1.6-.2 2.3-.4c-.1-1.8-.3-3.6-.6-5.5s-.7-3.8-1.3-5.7-1.2-3.6-2-5.3c-.8-1.7-1.7-3.2-2.8-4.4-1.1-1.3-2.3-2.3-3.6-3s-2.8-1.1-4.5-1.1c-1.3 0-2.5.2-3.5.7-1 .5-1.9 1.1-2.6 1.9-.7.8-1.2 1.7-1.6 2.8-.3.9-.4 2-.4 3.2zm2.6 0c0-.8.1-1.6.4-2.3.2-.7.6-1.4 1.1-1.9.5-.5 1-1 1.7-1.3.7-.3 1.5-.5 2.4-.5 1.2 0 2.3.3 3.4.9 1 .6 1.9 1.3 2.8 2.3.8 1 1.6 2.1 2.2 3.5s1.2 2.7 1.7 4.2.9 3 1.2 4.6c.3 1.6.5 3.1.7 4.7-.4.1-.7.1-1.1.1h-1.2c-1.9 0-3.7-.3-5.6-1-1.8-.7-3.4-1.6-4.9-2.9s-2.6-2.7-3.4-4.5-1.4-3.8-1.4-5.9zm23.5 21.5c-1.7 0-3.5 0-5.6.1l-6 .3c-2 .1-3.9.3-5.8.5-1.8.2-3.4.4-4.8.7 1.4.1 3.1.3 5 .4 1.9.1 3.9.2 6 .3 2 .1 4 .1 6 .1H55c1.9 0 3.8-.1 5.8-.1 2-.1 4-.1 5.9-.2 1.9-.1 3.7-.2 5.2-.3-1.3-.2-2.8-.4-4.6-.6-1.8-.2-3.7-.4-5.7-.5s-4-.3-6.1-.4c-2-.3-3.9-.3-5.6-.3zm0 6.6c-1.7 0-3.5 0-5.6.1l-6 .3c-2 .1-3.9.3-5.8.5-1.8.2-3.4.4-4.8.7 1.4.1 3.1.3 5 .4 1.9.1 3.9.2 6 .3 2 .1 4 .1 6 .1H55c1.9 0 3.8-.1 5.8-.1 2-.1 4-.1 5.9-.2 1.9-.1 3.7-.2 5.2-.3-1.3-.2-2.8-.4-4.6-.6-1.8-.2-3.7-.4-5.7-.5s-4-.3-6.1-.4c-2-.2-3.9-.3-5.6-.3zm0 6.9c-1.7 0-3.5 0-5.6.1s-4 .2-6 .3-3.9.3-5.8.5c-1.8.2-3.4.4-4.8.7 1.4.1 3.1.3 5 .4 1.9.1 3.9.2 6 .3 2 .1 4 .1 6 .1H55c1.9 0 3.8-.1 5.8-.1 2-.1 4-.1 5.9-.2 1.9-.1 3.7-.2 5.2-.3-1.3-.2-2.8-.4-4.6-.6-1.8-.2-3.7-.4-5.7-.5s-4-.3-6.1-.4c-2-.2-3.9-.3-5.6-.3zM47 40.1c0 1.7.1 3.3.3 4.7.2 1.5.5 3 .8 4.5.3 1.5.6 3.2.9 5 .3 1.8.6 3.8.8 6.1h.2V27.5c-.7 1.1-1.2 2.2-1.6 3.4-.4 1.1-.7 2.2-.9 3.3-.2 1.1-.3 2.1-.4 3.1s-.1 2-.1 2.8zm29.3 3.2c0-1.2-.2-2.3-.5-3.3-.3-1.1-.9-2-1.6-2.8-.7-.8-1.6-1.4-2.6-1.9s-2.2-.7-3.5-.7c-1.6 0-3.1.4-4.5 1.1s-2.5 1.8-3.6 3c-1.1 1.3-2 2.7-2.8 4.4-.8 1.7-1.5 3.4-2 5.3s-1 3.7-1.3 5.7c-.3 1.9-.5 3.8-.6 5.5.7.2 1.4.3 2.3.4s1.8.1 2.9.1c2.2 0 4.4-.4 6.5-1.2 2.1-.8 4-1.9 5.7-3.4 1.7-1.5 3-3.3 4-5.3s1.6-4.3 1.6-6.9zm-2.7 0c0 2.2-.4 4.2-1.3 5.9s-2 3.3-3.4 4.5c-1.4 1.2-3 2.2-4.9 2.9-1.8.7-3.7 1-5.6 1h-1.2c-.4 0-.7 0-1.1-.1.2-1.5.4-3.1.7-4.7.3-1.6.7-3.1 1.2-4.6s1-2.9 1.7-4.2 1.4-2.5 2.2-3.5c.8-1 1.8-1.8 2.8-2.3 1-.6 2.1-.9 3.4-.9.9 0 1.7.2 2.4.5s1.3.8 1.7 1.3.8 1.2 1.1 1.9c.2.7.3 1.4.3 2.3z"/></svg>