<svg xmlns="http://www.w3.org/2000/svg" viewBox="0 0 100 100"><path fill="ACCENT" d="M34.9 76.4c-1.4 0-2.6.2-3.4.7-.9.5-1.5 1.2-1.8 2h40.7c-.4-.9-.9-1.5-1.8-2-.8-.5-2-.7-3.5-.7H34.9zm27.6-39.3c0-.8-.3-1.5-.8-1.9s-1.3-.7-2.3-.7H40.5c-1 0-1.8.2-2.3.7s-.8 1.1-.8 1.9h25.1zM40.2 70.8c-1 0-1.5.4-1.5 1.2h22.6c0-.8-.5-1.2-1.5-1.2H40.2zm6.2-45.9c0-.8.1-1.6.4-2.4.3-.7.7-1.4 1.2-2 .5-.6 1.1-1.1 1.8-1.5s1.4-.7 2.2-.8c-.2-.1-.5-.2-.8-.2-.3 0-.7-.1-1-.1-2.5 0-4.4.7-5.7 2.1s-2 3.2-2 5.4c0 1.2.2 2.3.7 3.3.4 1 1.1 1.9 1.9 2.5h5.7c-1.3-.5-2.3-1.3-3.2-2.4-.8-1.1-1.2-2.5-1.2-3.9zm9.3 19.4c0-.8-.5-1.2-1.5-1.2H46c-1 0-1.5.4-1.5 1.2h11.2zm-8.1 6.8c0 3-.3 6-.9 8.8-.6 2.8-1.4 5.4-2.4 7.6h4.4V48.7h-1.1v2.4z"/><path fill="BODY" d="M25.5 85v-1.7c0-1.6.2-3.1.5-4.3.4-1.3.9-2.3 1.7-3.2.8-.9 1.7-1.5 2.9-2 1.2-.4 2.7-.7 4.4-.7h.3c-.2-.3-.2-.7-.2-1.2 0-.6.1-1.1.3-1.7.2-.5.5-1 .9-1.4s.9-.7 1.6-1c.6-.3 1.4-.4 2.3-.4h.3c.8-1.5 1.5-2.9 2-4.4s.9-2.8 1.2-4.2c.3-1.4.5-2.7.6-4 .1-1.3.1-2.6.1-3.8v-2.5c-1.2-.3-2-.8-2.6-1.6-.6-.8-.9-1.7-.9-2.7v-.6c0-.2.1-.4.1-.6h-.3c-2.2 0-3.9-.6-5.1-1.7s-1.7-2.5-1.7-4.2c0-1.6.6-3 1.8-4.1 1.2-1.1 2.9-1.7 5.1-1.8-.5-.8-.9-1.7-1.2-2.6-.3-1-.4-2.1-.4-3.2 0-1.5.3-2.9.8-4.2s1.3-2.4 2.3-3.3c1-.9 2.1-1.6 3.4-2.1 1.3-.5 2.8-.8 4.3-.8s3 .3 4.3.8c1.3.5 2.5 1.2 3.4 2.1 1 .9 1.7 2 2.3 3.3s.8 2.7.8 4.2c0 1.1-.1 2.2-.4 3.2-.3 1-.7 1.9-1.2 2.6 2.2.1 3.8.7 5.1 1.8 1.2 1.1 1.8 2.5 1.8 4.1 0 1.7-.6 3.1-1.7 4.2S61.6 43 59.3 43H59c.1.2.1.4.1.6v.6c0 1-.3 1.9-.9 2.7-.6.8-1.5 1.3-2.6 1.6V51c0 1.2 0 2.5.1 3.8.1 1.3.3 2.7.6 4 .3 1.4.7 2.8 1.2 4.2s1.2 2.9 2 4.4h.3c.9 0 1.6.1 2.3.4.6.3 1.2.6 1.6 1s.7.9.9 1.4c.2.5.3 1.1.3 1.7 0 .4-.1.8-.2 1.2h.3c3.4 0 5.8.9 7.3 2.6 1.5 1.8 2.2 4.3 2.2 7.5V85h-49zm9.4-8.6c-1.4 0-2.6.2-3.4.7-.9.5-1.5 1.2-1.8 2h40.7c-.4-.9-.9-1.5-1.8-2-.8-.5-2-.7-3.5-.7H34.9zm27.6-39.3c0-.8-.3-1.5-.8-1.9s-1.3-.7-2.3-.7H40.5c-1 0-1.8.2-2.3.7s-.8 1.1-.8 1.9h25.1zM40.2 70.8c-1 0-1.5.4-1.5 1.2h22.6c0-.8-.5-1.2-1.5-1.2H40.2zm6.2-45.9c0-.8.1-1.6.4-2.4.3-.7.7-1.4 1.2-2 .5-.6 1.1-1.1 1.8-1.5s1.4-.7 2.2-.8c-.2-.1-.5-.2-.8-.2-.3 0-.7-.1-1-.1-2.5 0-4.4.7-5.7 2.1s-2 3.2-2 5.4c0 1.2.2 2.3.7 3.3.4 1 1.1 1.9 1.9 2.5h5.7c-1.3-.5-2.3-1.3-3.2-2.4-.8-1.1-1.2-2.5-1.2-3.9zm9.3 19.4c0-.8-.5-1.2-1.5-1.2H46c-1 0-1.5.4-1.5 1.2h11.2zm-8.1 6.8c0 3-.3 6-.9 8.8-.6 2.8-1.4 5.4-2.4 7.6h4.4V48.7h-1.1v2.4z"/></svg>