<svg xmlns="http://www.w3.org/2000/svg" viewBox="0 0 100 100"><path fill="ACCENT" d="M15.1 29.4c0 .7.2 1.3.7 1.8.5.5 1.1.7 1.8.7s1.3-.2 1.8-.7.7-1.1.7-1.8-.2-1.3-.7-1.8-1.1-.7-1.8-.7-1.3.2-1.8.7c-.5.5-.7 1.1-.7 1.8zm10.4 29c.3 0 .7-.1 1.2-.1s1.1 0 1.7-.1l-5.6-14.7 2.7 14.9zm24.4 4.3c-1.9 0-3.9 0-6.1.1-2.2.1-4.4.2-6.7.3-2.2.1-4.3.3-6.4.5-2 .2-3.8.5-5.3.7 1.6.2 3.4.3 5.6.4 2.1.1 4.3.2 6.6.3s4.5.1 6.6.2h11.3c2.1 0 4.2-.1 6.4-.2s4.4-.2 6.5-.3 4-.2 5.7-.4c-1.4-.2-3.1-.5-5.1-.7-2-.2-4.1-.4-6.3-.6s-4.5-.3-6.7-.4c-2.2.2-4.2.1-6.1.1zm0 7.3c-1.9 0-3.9 0-6.1.1-2.2.1-4.4.2-6.7.3s-4.3.3-6.4.5c-2 .2-3.8.5-5.3.7 1.6.2 3.4.3 5.6.4s4.3.2 6.6.3c2.3.1 4.5.1 6.6.2h11.3c2.1 0 4.2-.1 6.4-.2s4.4-.2 6.5-.3c2.1-.1 4-.2 5.7-.4-1.4-.2-3.1-.5-5.1-.7s-4.1-.4-6.3-.6c-2.2-.2-4.5-.3-6.7-.4-2.2.2-4.2.1-6.1.1zm0 7.7c-1.9 0-3.9 0-6.1.1-2.2.1-4.4.2-6.7.3s-4.3.3-6.4.5c-2 .2-3.8.5-5.3.7 1.6.2 3.4.3 5.6.4s4.3.2 6.6.3c2.3.1 4.5.1 6.6.2h11.3c2.1 0 4.2-.1 6.4-.2s4.4-.2 6.5-.3c2.1-.1 4-.2 5.7-.4-1.4-.2-3.1-.5-5.1-.7s-4.1-.4-6.3-.6c-2.2-.2-4.5-.3-6.7-.4-2.2.1-4.2.1-6.1.1zM30.5 22.9c0 .7.2 1.3.7 1.8s1.1.7 1.8.7 1.3-.2 1.8-.7c.5-.5.7-1.1.7-1.8s-.2-1.3-.7-1.8c-.5-.5-1.1-.7-1.8-.7s-1.3.2-1.8.7-.7 1.1-.7 1.8zM33.1 58c.7-.1 1.4-.1 2.2-.1.8 0 1.5 0 2.3-.1L35 37l-1.9 21zM50 31.3l-5.9 26.4c1 0 2-.1 3-.1H50V31.3zm-3.1-11.4c0 .7.2 1.3.7 1.8.5.5 1.1.7 1.8.7s1.3-.2 1.8-.7c.5-.5.7-1.1.7-1.8s-.2-1.3-.7-1.8c-.5-.5-1.1-.7-1.8-.7s-1.3.2-1.8.7c-.4.5-.7 1.1-.7 1.8zm17.9 17-6.9 20.8h4.5l2.4-20.8zm-1.6-14c0 .7.2 1.3.7 1.8.5.5 1.1.7 1.8.7s1.3-.2 1.8-.7c.5-.5.7-1.1.7-1.8s-.2-1.3-.7-1.8c-.5-.5-1.1-.7-1.8-.7s-1.3.2-1.8.7c-.4.5-.7 1.1-.7 1.8zm14 20.6-8.8 14.6h3.3l5.5-14.6zm1.5-14.1c0 .7.2 1.3.7 1.8.5.5 1.1.7 1.8.7s1.3-.2 1.8-.7.7-1.1.7-1.8-.2-1.3-.7-1.8-1.1-.7-1.8-.7-1.3.2-1.8.7c-.4.5-.7 1.1-.7 1.8z"/><path fill="BODY" d="M44.2 20.8c0-.9.2-1.8.5-2.5s.8-1.3 1.3-1.8 1.1-.9 1.8-1.1c.7-.2 1.4-.4 2.1-.4.7 0 1.4.1 2.1.4.7.2 1.3.6 1.9 1.1.6.5 1 1.1 1.4 1.8.4.7.5 1.6.5 2.5 0 1.5-.4 2.7-1.1 3.6s-1.7 1.5-2.8 1.8l5.2 23.1 7.3-20.2c-1.2-.4-2.1-1-2.8-2-.7-1-1.1-2.1-1.1-3.4 0-.9.2-1.8.5-2.5.4-.7.8-1.3 1.4-1.8.6-.5 1.2-.9 1.9-1.1.7-.2 1.4-.4 2.1-.4s1.4.1 2.1.4c.7.2 1.3.6 1.9 1.1.6.5 1 1.1 1.3 1.8.3.7.5 1.6.5 2.5 0 .7-.1 1.3-.3 2-.2.6-.6 1.2-1 1.7s-.9.9-1.6 1.3c-.6.4-1.3.6-2.1.7l1.9 20.8 9.7-14.8c-.9-.5-1.6-1.2-2.1-2.1-.5-.9-.8-1.9-.8-3 0-.9.2-1.8.5-2.5.4-.7.8-1.3 1.4-1.8s1.2-.9 1.9-1.1c.7-.2 1.4-.4 2.1-.4s1.4.1 2.1.4c.7.2 1.3.6 1.8 1.1.5.5 1 1.1 1.3 1.8.3.7.5 1.6.5 2.5 0 .7-.1 1.4-.4 2.1-.3.7-.6 1.3-1.1 1.8s-1.1 1-1.8 1.3c-.7.3-1.5.5-2.4.5H81l-3.8 25.1v22.1c-4.4.6-9 1.1-13.8 1.4s-9.1.4-13.5.4c-4.5 0-9.1-.1-13.7-.4s-9.2-.7-13.6-1.4V61.1L18.9 36h-.8c-.9 0-1.7-.2-2.4-.5s-1.3-.7-1.8-1.3-.9-1.1-1.1-1.8c-.3-.7-.4-1.4-.4-2.1 0-.9.2-1.8.5-2.5s.8-1.3 1.3-1.8 1.1-.9 1.8-1.1c.7-.2 1.4-.4 2.1-.4s1.4.1 2.1.4c.7.2 1.3.6 1.9 1.1.6.5 1 1.1 1.4 1.8.4.7.5 1.6.5 2.5 0 1.1-.3 2.1-.8 3-.5.9-1.2 1.6-2.1 2.1l9.7 14.8 1.9-20.8c-.8-.1-1.5-.3-2.1-.7-.6-.4-1.1-.8-1.6-1.3-.4-.5-.8-1.1-1-1.7-.2-.6-.3-1.3-.3-2 0-.9.2-1.8.5-2.5s.8-1.3 1.3-1.8c.6-.5 1.2-.9 1.9-1.1.7-.2 1.4-.4 2.1-.4.7 0 1.4.1 2.1.4.7.2 1.3.6 1.9 1.1.6.5 1 1.1 1.4 1.8.4.7.5 1.6.5 2.5 0 1.3-.4 2.4-1.1 3.4-.7 1-1.6 1.6-2.8 2l7.3 20.2L48 26.2c-1.1-.3-2-.9-2.8-1.8s-1-2.1-1-3.6zm-29.1 8.6c0 .7.2 1.3.7 1.8.5.5 1.1.7 1.8.7s1.3-.2 1.8-.7.7-1.1.7-1.8-.2-1.3-.7-1.8-1.1-.7-1.8-.7-1.3.2-1.8.7c-.5.5-.7 1.1-.7 1.8zm10.4 29c.3 0 .7-.1 1.2-.1s1.1 0 1.7-.1l-5.6-14.7 2.7 14.9zm24.4 4.3c-1.9 0-3.9 0-6.1.1-2.2.1-4.4.2-6.7.3-2.2.1-4.3.3-6.4.5-2 .2-3.8.5-5.3.7 1.6.2 3.4.3 5.6.4 2.1.1 4.3.2 6.6.3s4.5.1 6.6.2h11.3c2.1 0 4.2-.1 6.4-.2s4.4-.2 6.5-.3 4-.2 5.7-.4c-1.4-.2-3.1-.5-5.1-.7-2-.2-4.1-.4-6.3-.6s-4.5-.3-6.7-.4c-2.2.2-4.2.1-6.1.1zm0 7.3c-1.9 0-3.9 0-6.1.1-2.2.1-4.4.2-6.7.3s-4.3.3-6.4.5c-2 .2-3.8.5-5.3.7 1.6.2 3.4.3 5.6.4s4.3.2 6.6.3c2.3.1 4.5.1 6.6.2h11.3c2.1 0 4.2-.1 6.4-.2s4.4-.2 6.5-.3c2.1-.1 4-.2 5.7-.4-1.4-.2-3.1-.5-5.1-.7s-4.1-.4-6.3-.6c-2.2-.2-4.5-.3-6.7-.4-2.2.2-4.2.1-6.1.1zm0 7.7c-1.9 0-3.9 0-6.1.1-2.2.1-4.4.2-6.7.3s-4.3.3-6.4.5c-2 .2-3.8.5-5.3.7 1.6.2 3.4.3 5.6.4s4.3.2 6.6.3c2.3.1 4.5.1 6.6.2h11.3c2.1 0 4.2-.1 6.4-.2s4.4-.2 6.5-.3c2.1-.1 4-.2 5.7-.4-1.4-.2-3.1-.5-5.1-.7s-4.1-.4-6.3-.6c-2.2-.2-4.5-.3-6.7-.4-2.2.1-4.2.1-6.1.1zM30.5 22.9c0 .7.2 1.3.7 1.8s1.1.7 1.8.7 1.3-.2 1.8-.7c.5-.5.7-1.1.7-1.8s-.2-1.3-.7-1.8c-.5-.5-1.1-.7-1.8-.7s-1.3.2-1.8.7-.7 1.1-.7 1.8zM33.1 58c.7-.1 1.4-.1 2.2-.1.8 0 1.5 0 2.3-.1L35 37l-1.9 21zM50 31.3l-5.9 26.4c1 0 2-.1 3-.1H50V31.3zm-3.1-11.4c0 .7.2 1.3.7 1.8.5.5 1.1.7 1.8.7s1.3-.2 1.8-.7c.5-.5.7-1.1.7-1.8s-.2-1.3-.7-1.8c-.5-.5-1.1-.7-1.8-.7s-1.3.2-1.8.7c-.4.5-.7 1.1-.7 1.8zm17.9 17-6.9 20.8h4.5l2.4-20.8zm-1.6-14c0 .7.2 1.3.7 1.8.5.5 1.1.7 1.8.7s1.3-.2 1.8-.7c.5-.5.7-1.1.7-1.8s-.2-1.3-.7-1.8c-.5-.5-1.1-.7-1.8-.7s-1.3.2-1.8.7c-.4.5-.7 1.1-.7 1.8zm14 20.6-8.8 14.6h3.3l5.5-14.6zm1.5-14.1c0 .7.2 1.3.7 1.8.5.5 1.1.7 1.8.7s1.3-.2 1.8-.7.7-1.1.7-1.8-.2-1.3-.7-1.8-1.1-.7-1.8-.7-1.3.2-1.8.7c-.4.5-.7 1.1-.7 1.8z"/></svg>