<svg xmlns="http://www.w3.org/2000/svg" viewBox="0 0 100 100"><path fill="ACCENT" d="M46.3 69.3c-.8.5-1.8.9-3.1 1.1s-2.6.4-4 .6c-1.4.1-2.7.2-4 .3-1.3.1-2.3.2-3.1.3l-1.9 1.8h2.2c1.2 0 2.4 0 3.7-.1 1.3-.1 2.5-.3 3.8-.6s2.4-.7 3.6-1.2 2.1-1.2 3-2l-.2-.2zm-8.4-32.2v-.7c0-.3 0-.6.1-.8h-.2c-.3.9-.6 1.9-.8 2.8-.2 1-.2 2-.2 3 0 2.5.5 4.8 1.4 6.9s2.2 4 3.7 5.5l3.6-.7c-2.4-1.8-4.3-4-5.6-6.5s-2-5.8-2-9.5zm2.3 26.2c.6-.1 1.3-.2 2.1-.3.8-.1 1.5-.2 2.2-.2l.8-6.5c-.6.1-1.3.2-1.9.3-.6.1-1.2.3-1.7.5l-1.5 6.2zm11-29.3v-6.4h-2.5V34h-6v2.4h6v14.1h2.5V36.4h6V34h-6zm-2.6-12.4c-.3-.3-.5-.8-.6-1.2-.1-.5-.2-1-.2-1.4 0-.8.2-1.5.6-2.1-.7.3-1.2.9-1.7 1.5s-.7 1.3-.7 2.1c0 .4.1.8.2 1.1.1.4.3.7.6 1l1.8-1zm5 47.8c.9.9 1.9 1.5 3 2s2.3.9 3.6 1.2 2.5.5 3.8.6c1.3.1 2.5.1 3.7.1h2.2L68 71.5c-.8-.1-1.8-.2-3.1-.3-1.3-.1-2.6-.2-4-.3-1.4-.1-2.7-.3-4-.6s-2.3-.6-3.1-1.1l-.2.2z"/><path fill="BODY" d="M44.2 20.7c0-.8.1-1.6.4-2.3.3-.7.7-1.3 1.2-1.8s1.1-.9 1.8-1.2c.7-.3 1.5-.4 2.3-.4s1.6.1 2.3.4c.7.3 1.3.7 1.8 1.2s.9 1.1 1.2 1.8c.3.7.4 1.4.4 2.3 0 1.1-.3 2-.8 2.8 1.6 1.1 3 2.3 4.4 3.6 1.4 1.2 2.5 2.6 3.5 4s1.8 3 2.4 4.7.9 3.6.9 5.6c0 1.6-.2 3.1-.5 4.4-.3 1.4-.8 2.6-1.3 3.7s-1.1 2.2-1.7 3.1-1.3 1.7-1.9 2.5l2.7 9.8c-1.2.8-2.6 1.4-4.2 1.8-1.6.5-3.4.8-5.2 1 1 .4 2.1.8 3.3 1 1.2.2 2.4.3 3.7.4l3.9.3c1.3.1 2.6.2 3.8.3l4.5 4.3c-.1 1.3-.3 2.5-.8 3.7-.4 1.1-1 2.2-1.8 3.1-.7 1-1.6 1.8-2.6 2.5s-2.1 1.3-3.2 1.7l-4.9-5.2c.4-.2.9-.4 1.5-.7s1.1-.6 1.6-1 1-.8 1.4-1.3.7-1.1.8-1.7c-1.8-.1-3.3-.3-4.7-.5s-2.7-.6-3.9-1.2c-1.2-.5-2.3-1.2-3.3-2.1-1-.9-2.1-2-3.1-3.4H50c-1 1.4-2.1 2.6-3.1 3.4-1 .9-2.1 1.6-3.3 2.1-1.2.5-2.5.9-3.9 1.2s-3 .4-4.7.5c.1.6.4 1.2.8 1.7s.9.9 1.4 1.3c.5.4 1 .7 1.6 1s1 .5 1.5.7l-5 5.2c-1.2-.4-2.3-1-3.2-1.7-1-.7-1.9-1.6-2.6-2.5-.7-1-1.3-2-1.8-3.1-.4-1.1-.7-2.4-.8-3.7l4.5-4.3c1.2-.1 2.5-.3 3.8-.3l3.9-.3c1.3-.1 2.5-.2 3.7-.4 1.2-.2 2.3-.5 3.3-1-1.9-.2-3.6-.5-5.2-1s-3-1.1-4.2-1.8l2.7-9.8c-.6-.7-1.3-1.6-1.9-2.5s-1.2-1.9-1.7-3.1c-.5-1.1-.9-2.4-1.3-3.7-.3-1.4-.5-2.8-.5-4.4 0-2 .3-3.9.9-5.6s1.4-3.3 2.4-4.7c1-1.4 2.2-2.8 3.5-4 1.4-1.2 2.8-2.4 4.4-3.6-.7-.8-1-1.7-1-2.8zm2.1 48.6c-.8.5-1.8.9-3.1 1.1s-2.6.4-4 .6c-1.4.1-2.7.2-4 .3-1.3.1-2.3.2-3.1.3l-1.9 1.8h2.2c1.2 0 2.4 0 3.7-.1 1.3-.1 2.5-.3 3.8-.6s2.4-.7 3.6-1.2 2.1-1.2 3-2l-.2-.2zm-8.4-32.2v-.7c0-.3 0-.6.1-.8h-.2c-.3.9-.6 1.9-.8 2.8-.2 1-.2 2-.2 3 0 2.5.5 4.8 1.4 6.9s2.2 4 3.7 5.5l3.6-.7c-2.4-1.8-4.3-4-5.6-6.5s-2-5.8-2-9.5zm2.3 26.2c.6-.1 1.3-.2 2.1-.3.8-.1 1.5-.2 2.2-.2l.8-6.5c-.6.1-1.3.2-1.9.3-.6.1-1.2.3-1.7.5l-1.5 6.2zm11-29.3v-6.4h-2.5V34h-6v2.4h6v14.1h2.5V36.4h6V34h-6zm-2.6-12.4c-.3-.3-.5-.8-.6-1.2-.1-.5-.2-1-.2-1.4 0-.8.2-1.5.6-2.1-.7.3-1.2.9-1.7 1.5s-.7 1.3-.7 2.1c0 .4.1.8.2 1.1.1.4.3.7.6 1l1.8-1zm5 47.8c.9.9 1.9 1.5 3 2s2.3.9 3.6 1.2 2.5.5 3.8.6c1.3.1 2.5.1 3.7.1h2.2L68 71.5c-.8-.1-1.8-.2-3.1-.3-1.3-.1-2.6-.2-4-.3-1.4-.1-2.7-.3-4-.6s-2.3-.6-3.1-1.1l-.2.2z"/></svg>