<svg xmlns="http://www.w3.org/2000/svg" viewBox="0 0 100 100"><path fill="ACCENT" d="M25.2 49.4c.1.4.2.8.4 1.2s.4.7.7.9c.8-.3 1.5-.7 2.2-1.3s1.4-1.1 2.2-1.5v-.3l-5.5 1zm15.6-14.9c.6 0 1.2 0 1.8-.1.6-.1 1.3-.2 1.9-.5.6-.2 1.3-.5 1.8-.8s1.1-.7 1.5-1.1c-.6 0-1.2-.1-2-.2s-1.5-.2-2.2-.2h-1c-.4 0-.7.1-1 .2-.3.1-.6.3-.8.6s-.3.6-.3 1c.1.3.2.7.3 1.1zm20.8 1.4c2.6 4.3 4.5 8.6 5.8 12.9s1.9 8.7 1.9 13.3c0 1.4 0 2.8-.1 4.1-.1 1.3-.2 2.7-.4 4-.2 1.3-.4 2.7-.7 4.1-.3 1.4-.7 2.8-1.1 4.3h5.3c.4-1.9.7-3.8.9-5.7.2-1.8.3-3.6.3-5.3 0-2.5-.2-4.8-.5-7s-.8-4.3-1.4-6.2c-.6-1.9-1.2-3.7-1.9-5.4-.7-1.7-1.5-3.2-2.2-4.6-1.7-3.2-3.7-6-5.9-8.5z"/><path fill="BODY" d="M34.7 85c-.3-.9-.6-1.9-.9-3.1s-.4-2.8-.4-4.7c0-2.3.4-4.4 1.3-6.3.9-1.9 1.9-3.6 3.2-5.1 1.3-1.6 2.7-3 4.2-4.3 1.5-1.3 2.9-2.6 4.2-3.9 1.3-1.3 2.4-2.6 3.2-3.9.9-1.3 1.3-2.7 1.3-4.2-1 1-2.2 1.8-3.7 2.5s-3.5 1.1-6 1.2c-.9.7-1.9 1.2-2.8 1.7s-2 .9-3 1.2c-1 1.1-1.9 1.9-3 2.6-1 .7-2.1 1-3.2 1-.9 0-1.7-.2-2.5-.5s-1.5-.8-2.1-1.4-1.2-1.3-1.6-2c-.4-.8-.8-1.6-1-2.4-.4-.6-.6-1.2-.8-1.8-.1-.8-.1-1.4-.1-2 0-.5.2-1 .5-1.5s.7-1.1 1.1-1.5c.4-.5.9-.9 1.3-1.3.5-.4.9-.6 1.2-.8 1-1.4 2-2.6 2.8-3.6.8-1 1.6-2 2.4-2.8.8-.9 1.6-1.7 2.4-2.6.8-.9 1.9-1.8 3-2.9-.1-.2-.1-.5-.1-.7 0-1 .2-1.8.6-2.5.4-.7.9-1.4 1.5-1.9s1.3-1 2-1.3c.7-.3 1.4-.6 2.1-.8v-1.8c0-.6-.1-1.1-.2-1.7-.1-.6-.2-1.1-.3-1.8-.1-.6-.2-1.3-.4-2.1l1.4-.6c.5.2 1 .5 1.6.9.6.4 1.2.8 1.8 1.4.6.5 1.2 1.1 1.7 1.8.6.7 1 1.4 1.5 2.2l.5-.1c.2-1.2.4-2.4.6-3.7.1-1.3.3-2.7.3-4.2l1.9-.4c.7.6 1.4 1.3 2.1 2.1.7.8 1.4 1.7 2 2.6s1.2 2 1.8 3.2c.6 1.2 1 2.4 1.4 3.7.5.6 1 1.2 1.6 1.9.6.6 1.2 1.3 1.9 2.1.7.7 1.4 1.5 2.2 2.4.8.9 1.6 1.8 2.6 2.9 1.2 1.4 2.5 3.3 3.9 5.6s2.6 4.8 3.7 7.5 2.1 5.6 2.8 8.6c.7 3 1.1 5.9 1.1 8.8 0 1.9 0 3.5-.1 5l-.3 4.2c-.1 1.4-.3 2.8-.5 4.3s-.8 2.8-1.1 4.8H34.7zm-9.5-35.6c.1.4.2.8.4 1.2s.4.7.7.9c.8-.3 1.5-.7 2.2-1.3s1.4-1.1 2.2-1.5v-.3l-5.5 1zm15.6-14.9c.6 0 1.2 0 1.8-.1.6-.1 1.3-.2 1.9-.5.6-.2 1.3-.5 1.8-.8s1.1-.7 1.5-1.1c-.6 0-1.2-.1-2-.2s-1.5-.2-2.2-.2h-1c-.4 0-.7.1-1 .2-.3.1-.6.3-.8.6s-.3.6-.3 1c.1.3.2.7.3 1.1zm20.8 1.4c2.6 4.3 4.5 8.6 5.8 12.9s1.9 8.7 1.9 13.3c0 1.4 0 2.8-.1 4.1-.1 1.3-.2 2.7-.4 4-.2 1.3-.4 2.7-.7 4.1-.3 1.4-.7 2.8-1.1 4.3h5.3c.4-1.9.7-3.8.9-5.7.2-1.8.3-3.6.3-5.3 0-2.5-.2-4.8-.5-7s-.8-4.3-1.4-6.2c-.6-1.9-1.2-3.7-1.9-5.4-.7-1.7-1.5-3.2-2.2-4.6-1.7-3.2-3.7-6-5.9-8.5z"/></svg>