<svg xmlns="http://www.w3.org/2000/svg" viewBox="0 0 100 100"><path fill="ACCENT" d="M70.4 28.3v-1.8H29.7v1.8h40.7zm0 44.1v-1.8H29.7v1.8h40.7zM35.2 33.6l1.3 1.8h27.1l1.3-1.8H35.2zm29.7 31.6-1.3-1.8H36.5l-1.3 1.8h29.7z"/><path fill="BODY" d="M63.1 20.4V15h10.8v18.2h-3.7l-5 7.1V60l5 7.2h3.7v7.2h6.6V85H19.4V74.4H26v-7.2h3.5l5.2-7.2V40.3l-5.2-7.1h-3.6V15h10.6v5.4h5.9V15h14.8v5.4h5.9zm7.3 7.9v-1.8H29.7v1.8h40.7zm0 44.1v-1.8H29.7v1.8h40.7zM35.2 33.6l1.3 1.8h27.1l1.3-1.8H35.2zm29.7 31.6-1.3-1.8H36.5l-1.3 1.8h29.7z"/></svg>